<svg width="58" height="42" viewBox="0 0 58 42" fill="none" xmlns="http://www.w3.org/2000/svg">
<mask id="mask0_2051_155" style="mask-type:alpha" maskUnits="userSpaceOnUse" x="0" y="0" width="58" height="42">
<rect width="58" height="42" fill="#DC0A16"/>
</mask>
<g mask="url(#mask0_2051_155)">
<path d="M62 1.35526e-05V41.9911L61.9912 42H-4V1.35526e-05H62Z" fill="#2E4593"/>
<path d="M61.9648 37.603V41.9643L61.956 41.9732H55.1067L34.8737 29.1197L32.8443 27.8343L29.6514 25.7955L27.2196 24.2619L26.3186 23.6857L25.5576 23.1982L24.0268 22.232L23.5369 21.9128L22.7847 21.4519L12.3751 14.8212L-3.94775 4.45865V0.097312L-3.88652 0.00866699L-3.5 0H2.9103L25.5576 14.4844L26.1 14.8212L29.3278 16.8778L29.6514 17.0817L30.8936 17.8706L32.8443 19.1117L33.1767 19.3244L34.8737 20.397L36.5182 21.4519L40.962 24.2619L61.9648 37.603Z" fill="#FCF5FF"/>
<path d="M61.9735 41.8493L61.9912 42L57.5735 41.9734L34.8737 27.5509L32.9318 26.3098L32.8443 26.2567L30.8936 25.0156L29.7127 24.2621L27.552 22.8882L25.5576 21.6294L25.2689 21.4521L24.0268 20.6543L23.5369 20.3352L18.0785 16.878L14.8594 14.8215L-3.94775 2.87211V1.35526e-05L-3.88652 0.00866699L-3.76406 0.097523L19.4256 14.8215L22.6534 16.878L23.5369 17.4365L25.5576 18.7307L26.3186 19.2094L27.552 19.9983L29.8439 21.4521L32.8443 23.3491L33.1767 23.5707L34.2789 24.2621L34.8737 24.6433L61.9735 41.8493Z" fill="#F42525"/>
<path d="M61.9648 0.921946V5.28328L46.9365 14.8215L36.5182 21.4519L34.8737 22.4893L33.1767 23.5707L32.8443 23.7835L32.0833 24.2622L30.8936 25.0156L29.6514 25.7955L28.8554 26.3099L4.19618 41.9734H-3.94775V38.4276L22.7847 21.4519L23.5369 20.9734L24.0268 20.6543L25.5576 19.6792L26.3186 19.2094L29.6514 17.0817L29.9839 16.878L32.8443 15.052L33.2117 14.8215L56.3926 0.0975477H61.4487L61.9648 0.921946Z" fill="#FCF5FF"/>
<path d="M61.7986 1.13469L40.2534 14.8215L37.0256 16.878L34.8737 18.2432L33.1767 19.3244L32.8443 19.5374L29.8439 21.4521L27.552 22.8882L26.3186 23.6857L25.5576 24.1558L25.4089 24.2622L23.5369 25.45L22.1723 26.3099L-2.46068 41.9734H-3.94775V40.0144L17.5974 26.3099L20.834 24.2622L23.5369 22.5425L24.0268 22.232L25.2689 21.4521L25.5576 21.2571L27.552 19.9983L30.8936 17.8706L32.4594 16.878L32.8443 16.6298L34.8737 15.3356L35.6872 14.8215L58.8682 0.0975477H61.9648L61.9735 1.01059L61.7986 1.13469Z" fill="#F42525"/>
<path d="M62 14.8215H-4V26.3099H62V14.8215Z" fill="white"/>
<path d="M62 16.878H-4V24.2621H62V16.878Z" fill="#F42525"/>
<path d="M32.8443 0.0975477H25.5576V41.9734H32.8443V0.0975477Z" fill="#CD002A"/>
<path d="M32.8268 26.3099H34.8563V41.9734H23.5107V26.3099H25.5402V14.8215H23.5107V0.0975477H34.8563V14.8215H32.8268V26.3099Z" fill="white"/>
<path d="M32.8706 0.0975477H25.5052V41.9734H32.8706V0.0975477Z" fill="#F42525"/>
</g>
</svg>
