<svg width="64" height="64" viewBox="0 0 64 64" fill="none" xmlns="http://www.w3.org/2000/svg">
<path d="M47 28.565C46.7164 28.5919 46.4291 28.6098 46.138 28.6098C42.861 28.6098 39.9813 26.8795 38.306 24.2641C38.306 31.1252 38.306 38.9317 38.306 39.0625C38.306 45.1027 33.536 50 27.653 50C21.7699 50 17 45.1027 17 39.0625C17 33.0223 21.7699 28.125 27.653 28.125C27.8754 28.125 28.0927 28.1455 28.3114 28.1596V33.5495C28.0927 33.5226 27.8779 33.4815 27.653 33.4815C24.6496 33.4815 22.2159 35.9802 22.2159 39.0638C22.2159 42.1474 24.6496 44.646 27.653 44.646C30.6564 44.646 33.3087 42.2166 33.3087 39.133C33.3087 39.0112 33.3611 14 33.3611 14H38.3784C38.8507 18.6061 42.4725 22.2413 47 22.5748V28.565Z" fill="white"/>
</svg>
