<svg width="64" height="64" viewBox="0 0 64 64" fill="none" xmlns="http://www.w3.org/2000/svg">
<path d="M49.9005 19.785L44.4373 45.1591C44.2233 46.0653 43.8602 46.6386 43.3577 46.8698C42.8458 47.1102 42.2222 47.0178 41.4683 46.5924L33.1945 40.5262L29.1832 44.3546C28.9132 44.6227 28.6992 44.8077 28.541 44.9094C28.271 45.0666 27.9267 45.1498 27.4986 45.1498L28.1407 36.7719L43.4787 22.9753C43.6927 22.8181 43.7579 22.6701 43.6834 22.5406C43.5997 22.4112 43.4415 22.3557 43.1994 22.3834C42.9575 22.4112 42.7062 22.5037 42.4363 22.6609L23.4873 34.5434L15.2972 31.9911C14.3851 31.723 13.9569 31.3254 14.0034 30.7891C14.05 30.2527 14.6177 29.7811 15.688 29.3558L47.5737 17.1495C48.3741 16.8814 49.0163 16.9738 49.5003 17.427C49.9842 17.8801 50.1145 18.6661 49.9005 19.785Z" fill="white"/>
</svg>
