<svg width="64" height="64" viewBox="0 0 64 64" fill="none" xmlns="http://www.w3.org/2000/svg">
<path d="M25.332 14H38.6641C44.9141 14 50 19.084 50 25.332V38.6641C50 44.9141 44.916 50 38.668 50H25.3359C19.0859 50 14 44.916 14 38.668V25.3359C14 19.0859 19.084 14 25.332 14ZM25.332 18C21.29 18 18 21.2919 18 25.3359V38.668C18 42.71 21.2919 46 25.3359 46H38.668C42.71 46 46 42.7081 46 38.6641V25.332C46 21.29 42.7081 18 38.6641 18H25.332ZM41.3359 21.332C42.0719 21.332 42.668 21.9281 42.668 22.6641C42.668 23.4001 42.0719 24 41.3359 24C40.5999 24 40 23.4001 40 22.6641C40 21.9281 40.5999 21.332 41.3359 21.332ZM32 22C37.514 22 42 26.486 42 32C42 37.514 37.514 42 32 42C26.486 42 22 37.514 22 32C22 26.486 26.486 22 32 22ZM32 26C30.4087 26 28.8826 26.6321 27.7574 27.7574C26.6321 28.8826 26 30.4087 26 32C26 33.5913 26.6321 35.1174 27.7574 36.2426C28.8826 37.3679 30.4087 38 32 38C33.5913 38 35.1174 37.3679 36.2426 36.2426C37.3679 35.1174 38 33.5913 38 32C38 30.4087 37.3679 28.8826 36.2426 27.7574C35.1174 26.6321 33.5913 26 32 26Z" fill="white"/>
</svg>
