<svg width="142" height="18" viewBox="0 0 142 18" fill="none" xmlns="http://www.w3.org/2000/svg">
<path d="M142 9.04675C142 9.75584 141.918 10.4416 141.754 11.1039C141.591 11.7584 141.353 12.374 141.041 12.9506C140.737 13.5273 140.363 14.0571 139.918 14.5403C139.482 15.0156 138.987 15.4247 138.433 15.7675C137.888 16.1104 137.291 16.3792 136.644 16.574C135.997 16.761 135.311 16.8545 134.586 16.8545C133.884 16.8545 133.214 16.7649 132.574 16.5857C131.943 16.4065 131.351 16.1571 130.797 15.8377C130.243 15.5104 129.741 15.1208 129.288 14.6688C128.844 14.2091 128.462 13.7026 128.142 13.1494C127.831 12.5883 127.585 11.9883 127.406 11.3494C127.234 10.7104 127.148 10.0442 127.148 9.35065C127.148 8.67273 127.23 8.01039 127.394 7.36364C127.558 6.70909 127.792 6.09351 128.096 5.51688C128.407 4.94026 128.782 4.41039 129.218 3.92727C129.655 3.44416 130.142 3.02727 130.68 2.67662C131.226 2.32597 131.814 2.05325 132.446 1.85844C133.077 1.66364 133.744 1.56623 134.446 1.56623C135.576 1.56623 136.605 1.74156 137.533 2.09221C138.468 2.44286 139.264 2.94545 139.918 3.6C140.581 4.24675 141.092 5.03377 141.45 5.96104C141.817 6.88052 142 7.90909 142 9.04675ZM136.808 9.35065C136.808 9.01558 136.757 8.69221 136.656 8.38052C136.562 8.06104 136.422 7.78052 136.235 7.53896C136.048 7.28961 135.814 7.09091 135.533 6.94286C135.26 6.78701 134.945 6.70909 134.586 6.70909C134.219 6.70909 133.892 6.77532 133.604 6.90779C133.315 7.04026 133.066 7.22338 132.855 7.45714C132.652 7.68312 132.497 7.95195 132.387 8.26364C132.278 8.56753 132.224 8.89091 132.224 9.23377C132.224 9.56104 132.27 9.88831 132.364 10.2156C132.458 10.5429 132.598 10.839 132.785 11.1039C132.972 11.3688 133.202 11.5831 133.475 11.7468C133.756 11.9104 134.079 11.9922 134.446 11.9922C134.812 11.9922 135.139 11.9221 135.428 11.7818C135.724 11.6338 135.974 11.439 136.176 11.1974C136.379 10.9481 136.535 10.6636 136.644 10.3442C136.753 10.0247 136.808 9.69351 136.808 9.35065Z" fill="white"/>
<path d="M126.047 14.9143C125.68 15.374 125.228 15.7753 124.69 16.1182C124.152 16.461 123.575 16.7455 122.96 16.9714C122.344 17.1974 121.712 17.3649 121.065 17.474C120.418 17.5909 119.802 17.6494 119.217 17.6494C118.087 17.6494 117.046 17.4468 116.095 17.0416C115.144 16.6364 114.321 16.0792 113.628 15.3701C112.942 14.6532 112.404 13.8117 112.014 12.8455C111.624 11.8792 111.429 10.839 111.429 9.72468C111.429 8.87532 111.527 8.04545 111.721 7.23507C111.916 6.41688 112.193 5.64935 112.552 4.93247C112.918 4.20779 113.363 3.54545 113.885 2.94545C114.407 2.33766 115 1.81558 115.662 1.37922C116.325 0.942857 117.05 0.603896 117.838 0.362338C118.625 0.120779 119.467 0 120.363 0C120.699 0 121.057 0.0155844 121.439 0.0467532C121.821 0.0701299 122.199 0.116883 122.574 0.187013C122.956 0.249351 123.326 0.338961 123.685 0.455844C124.043 0.572727 124.371 0.716883 124.667 0.888312L124.339 5.35325C123.903 5.18961 123.451 5.08052 122.983 5.02597C122.523 4.96364 122.071 4.93247 121.626 4.93247C121.003 4.93247 120.418 5.02987 119.872 5.22468C119.334 5.41169 118.863 5.68442 118.457 6.04286C118.06 6.4013 117.744 6.83766 117.51 7.35195C117.276 7.86623 117.159 8.44675 117.159 9.09351C117.159 9.4987 117.214 9.89221 117.323 10.274C117.432 10.6481 117.596 10.9831 117.814 11.2792C118.04 11.5675 118.317 11.8013 118.644 11.9805C118.98 12.1597 119.366 12.2494 119.802 12.2494C120.098 12.2494 120.402 12.2104 120.714 12.1325C121.034 12.0545 121.307 11.9221 121.533 11.7351L121.58 10.8234L118.773 10.7766L118.913 7.27013C120.075 7.23117 121.237 7.2 122.398 7.17662C123.56 7.14545 124.729 7.10649 125.906 7.05974L126.047 14.9143Z" fill="white"/>
<path d="M110.515 9.04675C110.515 9.75584 110.433 10.4416 110.269 11.1039C110.105 11.7584 109.868 12.374 109.556 12.9506C109.252 13.5273 108.877 14.0571 108.433 14.5403C107.996 15.0156 107.501 15.4247 106.948 15.7675C106.402 16.1104 105.806 16.3792 105.159 16.574C104.512 16.761 103.826 16.8545 103.101 16.8545C102.399 16.8545 101.728 16.7649 101.089 16.5857C100.458 16.4065 99.8651 16.1571 99.3116 15.8377C98.7581 15.5104 98.2552 15.1208 97.803 14.6688C97.3587 14.2091 96.9767 13.7026 96.657 13.1494C96.3452 12.5883 96.0996 11.9883 95.9203 11.3494C95.7488 10.7104 95.663 10.0442 95.663 9.35065C95.663 8.67273 95.7449 8.01039 95.9086 7.36364C96.0723 6.70909 96.3062 6.09351 96.6102 5.51688C96.9221 4.94026 97.2963 4.41039 97.7329 3.92727C98.1695 3.44416 98.6567 3.02727 99.1946 2.67662C99.7404 2.32597 100.329 2.05325 100.96 1.85844C101.592 1.66364 102.259 1.56623 102.96 1.56623C104.091 1.56623 105.12 1.74156 106.047 2.09221C106.983 2.44286 107.778 2.94545 108.433 3.6C109.096 4.24675 109.606 5.03377 109.965 5.96104C110.331 6.88052 110.515 7.90909 110.515 9.04675ZM105.322 9.35065C105.322 9.01558 105.272 8.69221 105.17 8.38052C105.077 8.06104 104.936 7.78052 104.749 7.53896C104.562 7.28961 104.328 7.09091 104.048 6.94286C103.775 6.78701 103.459 6.70909 103.101 6.70909C102.734 6.70909 102.407 6.77532 102.118 6.90779C101.83 7.04026 101.58 7.22338 101.37 7.45714C101.167 7.68312 101.011 7.95195 100.902 8.26364C100.793 8.56753 100.738 8.89091 100.738 9.23377C100.738 9.56104 100.785 9.88831 100.879 10.2156C100.972 10.5429 101.112 10.839 101.3 11.1039C101.487 11.3688 101.717 11.5831 101.99 11.7468C102.27 11.9104 102.594 11.9922 102.96 11.9922C103.327 11.9922 103.654 11.9221 103.942 11.7818C104.239 11.6338 104.488 11.439 104.691 11.1974C104.894 10.9481 105.05 10.6636 105.159 10.3442C105.268 10.0247 105.322 9.69351 105.322 9.35065Z" fill="white"/>
<path d="M94.9122 10.6364L94.4211 15.826L84.5746 16.5974C84.6214 13.8779 84.672 11.174 84.7266 8.48571C84.789 5.7974 84.8631 3.09351 84.9488 0.374026H91.0298C90.8505 2.08052 90.679 3.78701 90.5152 5.49351C90.3515 7.19221 90.2346 8.90649 90.1644 10.6364C90.5308 10.6519 90.8933 10.6597 91.252 10.6597C91.6106 10.6597 91.9731 10.6597 92.3395 10.6597C92.7761 10.6597 93.2049 10.6558 93.6259 10.6481C94.0469 10.6403 94.4757 10.6364 94.9122 10.6364Z" fill="white"/>
<path d="M78.5123 16.2935L72.712 17.0416L72.0104 14.4H69.3441L68.7594 17.0416L62.7954 16.4571L67.4497 0.888312L73.9516 0.561039L78.5123 16.2935ZM71.5894 10.8234L70.7006 6.75584L69.8353 10.8234H71.5894Z" fill="white"/>
<path d="M63.2842 0.561039L57.6476 8.34545L62.3954 16.6208L56.9693 17.5792L53.4143 12.5299L53.2272 17.813L48.3624 18L48.7366 0.0935065L54.1861 0.397403L53.7651 5.68052L57.3903 0.0935065L63.2842 0.561039Z" fill="white"/>
<path d="M46.8983 0.537662L46.0563 16.387L39.9286 16.9481L36.6542 8.46234L36.1397 17.1117H30.8773L31.2983 0.537662L37.1454 0.257143L41.1916 8.67273L41.3787 0.724675L46.8983 0.537662Z" fill="white"/>
<path d="M30.1499 16.2935L24.3496 17.0416L23.648 14.4H20.9817L20.397 17.0416L14.4329 16.4571L19.0872 0.888312L25.5892 0.561039L30.1499 16.2935ZM23.227 10.8234L22.3382 6.75584L21.4728 10.8234H23.227Z" fill="white"/>
<path d="M14.9218 0.561039L9.28517 8.34545L14.033 16.6208L8.60691 17.5792L5.05188 12.5299L4.86478 17.813L0 18L0.374214 0.0935065L5.8237 0.397403L5.40271 5.68052L9.0279 0.0935065L14.9218 0.561039Z" fill="white"/>
</svg>
