<svg width="1920" height="1021" fill="none" xmlns="http://www.w3.org/2000/svg"><path d="M2159.43 637.106 960.267 415.201l-.348.062-.006.037.068.498L1608.45 1614.24h-481L959.981 415.798l-.111-.206L780.389 1614.24H314.575L959.714 415.3-240 626.315V193.096L959.596 415.077 310.977-783.644h481.402L959.876 415.008l.118-.224L1139.44-783.644h465.41L959.994 414.784l-.056.361.329.056L2159.43 204.286v432.82Z" fill="url(#a)"/><path d="M-240-784.414 959.329 415.3l.379-.174L2158.66-784.014v636.942L959.708 415.126l-.243.237 1199.195 562.71v636.937L959.428 415.4-240 1615.01V977.675L959.329 415.3-240-147.471v-636.943Z" fill="url(#b)"/><defs><radialGradient id="a" cx="0" cy="0" r="1" gradientUnits="userSpaceOnUse" gradientTransform="matrix(0 1198.94 -1199.71 0 959.714 415.3)"><stop offset=".535" stop-color="#FD6F6B"/><stop offset=".69" stop-color="#FD373F"/><stop offset="1" stop-color="#fff" stop-opacity="0"/></radialGradient><radialGradient id="b" cx="0" cy="0" r="1" gradientUnits="userSpaceOnUse" gradientTransform="matrix(0 1199.71 -1199.33 0 959.329 415.3)"><stop offset=".535" stop-color="#FD6F6B"/><stop offset=".69" stop-color="#FD373F"/><stop offset="1" stop-color="#fff" stop-opacity="0"/></radialGradient></defs></svg>