<svg width="58" height="42" viewBox="0 0 58 42" fill="none" xmlns="http://www.w3.org/2000/svg">
<rect width="58" height="42" fill="#DC0A16"/>
<path fill-rule="evenodd" clip-rule="evenodd" d="M26.1563 8C29.3069 8 32.1983 9.13695 34.4634 11.0321C33.0119 10.3326 31.3915 9.94109 29.6817 9.94109C23.4604 9.94109 18.4171 15.1162 18.4171 21.5C18.4171 27.8838 23.4604 33.0589 29.6817 33.0589C31.3915 33.0589 33.0118 32.6674 34.4634 31.9679C32.1982 33.863 29.3067 35 26.1563 35C18.8902 35 13 28.9559 13 21.5C13 14.0441 18.8902 8 26.1563 8Z" fill="white"/>
<path fill-rule="evenodd" clip-rule="evenodd" d="M37.4974 14.8377L40.1983 19.1234L45 17.793L41.8625 21.753L44.5795 26.028L39.9395 24.1898L36.8169 28.1623L37.0868 23.0661L32.44 21.2464L37.2466 19.935L37.4974 14.8377Z" fill="white"/>
</svg>
